<svg xmlns="http://www.w3.org/2000/svg" xmlns:xlink="http://www.w3.org/1999/xlink" width="500" zoomAndPan="magnify" viewBox="0 0 375 374.999991" height="500" preserveAspectRatio="xMidYMid meet" version="1.0"><defs><clipPath id="7c308a1992"><path d="M 107.472656 107.152344 L 267.71875 107.152344 L 267.71875 267.71875 L 107.472656 267.71875 Z M 107.472656 107.152344 " clip-rule="nonzero"/></clipPath><clipPath id="75a93845b0"><path d="M 187.5 267.527344 C 166.132812 267.527344 146.015625 259.210938 130.917969 244.082031 C 115.789062 228.984375 107.472656 208.867188 107.472656 187.5 C 107.472656 166.132812 115.789062 146.015625 130.917969 130.917969 C 146.015625 115.789062 166.132812 107.472656 187.5 107.472656 C 208.867188 107.472656 228.984375 115.789062 244.082031 130.917969 C 259.210938 146.046875 267.527344 166.132812 267.527344 187.5 C 267.527344 208.867188 259.210938 228.984375 244.082031 244.082031 C 228.984375 259.210938 208.867188 267.527344 187.5 267.527344 Z M 187.5 112.269531 C 167.414062 112.269531 148.507812 120.105469 134.308594 134.308594 C 120.105469 148.507812 112.269531 167.414062 112.269531 187.5 C 112.269531 207.585938 120.105469 226.492188 134.308594 240.691406 C 148.507812 254.894531 167.414062 262.730469 187.5 262.730469 C 207.585938 262.730469 226.492188 254.894531 240.691406 240.691406 C 254.894531 226.492188 262.730469 207.585938 262.730469 187.5 C 262.730469 167.414062 254.894531 148.507812 240.691406 134.308594 C 226.492188 120.105469 207.585938 112.269531 187.5 112.269531 Z M 187.5 112.269531 " clip-rule="nonzero"/></clipPath><clipPath id="c9db9e459a"><path d="M 120.3125 120.3125 L 254.5625 120.3125 L 254.5625 254.5625 L 120.3125 254.5625 Z M 120.3125 120.3125 " clip-rule="nonzero"/></clipPath></defs><g clip-path="url(#7c308a1992)"><g clip-path="url(#75a93845b0)"><path fill="#38b6ff" d="M 107.472656 107.472656 L 267.398438 107.472656 L 267.398438 267.398438 L 107.472656 267.398438 Z M 107.472656 107.472656 " fill-opacity="1" fill-rule="nonzero"/></g></g><g clip-path="url(#c9db9e459a)"><path fill="#38b6ff" d="M 187.382812 120.3125 C 166.820312 120.332031 147.398438 129.773438 134.6875 145.9375 L 212.382812 125.121094 C 204.453125 121.941406 195.988281 120.3125 187.445312 120.3125 C 187.425781 120.3125 187.402344 120.3125 187.382812 120.3125 Z M 220.242188 128.871094 L 129.757812 153.117188 C 128.453125 155.316406 127.269531 157.585938 126.21875 159.917969 L 226.707031 132.996094 C 224.632812 131.496094 222.472656 130.121094 220.242188 128.871094 Z M 232.171875 137.386719 L 123.683594 166.457031 C 123 168.535156 122.417969 170.644531 121.941406 172.777344 L 236.84375 141.992188 C 235.363281 140.382812 233.804688 138.84375 232.171875 137.386719 Z M 240.851562 146.773438 L 120.859375 178.925781 C 120.609375 180.914062 120.441406 182.910156 120.367188 184.914062 L 244.273438 151.714844 C 243.207031 150.015625 242.066406 148.367188 240.851562 146.773438 Z M 247.167969 156.792969 L 120.402344 190.761719 C 120.496094 192.675781 120.671875 194.582031 120.929688 196.476562 L 249.566406 162.007812 C 248.839844 160.238281 248.042969 158.496094 247.167969 156.792969 Z M 251.492188 167.347656 L 121.933594 202.0625 C 122.34375 203.90625 122.832031 205.730469 123.394531 207.527344 L 252.953125 172.8125 C 252.546875 170.972656 252.058594 169.148438 251.492188 167.347656 Z M 253.960938 178.402344 L 125.324219 212.867188 C 126.046875 214.640625 126.847656 216.378906 127.722656 218.082031 L 254.488281 184.113281 C 254.390625 182.207031 254.21875 180.296875 253.960938 178.402344 Z M 254.523438 189.960938 L 130.617188 223.164062 C 131.683594 224.859375 132.824219 226.507812 134.039062 228.101562 L 254.027344 195.953125 C 254.28125 193.964844 254.449219 191.964844 254.523438 189.960938 Z M 252.949219 202.097656 L 138.046875 232.882812 C 139.527344 234.496094 141.085938 236.03125 142.71875 237.488281 L 251.203125 208.417969 C 251.890625 206.34375 252.472656 204.234375 252.949219 202.097656 Z M 248.667969 214.957031 L 148.179688 241.882812 C 150.257812 243.378906 152.414062 244.753906 154.648438 246.007812 L 245.132812 221.761719 C 246.4375 219.5625 247.621094 217.289062 248.667969 214.957031 Z M 240.203125 228.9375 L 162.503906 249.757812 C 170.4375 252.933594 178.898438 254.5625 187.445312 254.5625 C 208.03125 254.5625 227.476562 245.117188 240.203125 228.9375 Z M 240.203125 228.9375 " fill-opacity="1" fill-rule="nonzero"/></g><path fill="#00025d" d="M 143.023438 132.449219 C 143.023438 132.449219 142.914062 136.476562 143.050781 136.644531 C 143.191406 136.816406 143.730469 136.984375 143.785156 137.40625 C 143.839844 137.828125 142.742188 140.671875 143.136719 140.980469 C 143.53125 141.289062 144.261719 141.152344 144.261719 141.152344 C 144.261719 141.152344 144.402344 142.8125 144.546875 143.007812 C 144.683594 143.203125 145.445312 143.429688 145.445312 143.429688 C 145.445312 143.429688 144.996094 144.554688 145.585938 144.894531 C 146.175781 145.230469 146.769531 145.34375 146.769531 145.34375 C 146.769531 145.34375 147.5 147.511719 148.148438 147.511719 C 148.796875 147.511719 148.964844 147.511719 148.964844 147.511719 C 148.964844 147.511719 148.710938 149.878906 148.65625 151.453125 C 148.597656 153.03125 148.148438 154.746094 148.683594 157.027344 C 148.683594 157.027344 147.164062 160.039062 147.105469 160.828125 C 147.050781 161.617188 147.191406 163.980469 147.191406 163.980469 C 147.191406 163.980469 144.316406 162.011719 143.164062 160.96875 C 142.007812 159.925781 141.417969 158.292969 141.417969 158.292969 C 141.417969 158.292969 141.472656 157.308594 140.65625 156.015625 C 140.65625 156.015625 140.683594 155.113281 140.035156 154.128906 C 139.390625 153.140625 138.855469 152.496094 138.261719 152.238281 C 137.671875 151.988281 136.882812 151.480469 136.65625 151.421875 C 136.429688 151.367188 135.898438 151.957031 136.121094 152.492188 C 136.121094 152.492188 135.445312 152.351562 135.136719 152.914062 C 134.828125 153.476562 134.910156 154.519531 134.910156 154.519531 C 134.910156 154.519531 133.390625 154.996094 133.417969 155.449219 C 133.445312 155.898438 133.894531 156.492188 133.894531 156.492188 C 133.894531 156.492188 133.304688 157.449219 134.007812 158.433594 C 134.007812 158.433594 133.390625 159.363281 133.925781 159.898438 C 134.460938 160.433594 135.5 160.828125 135.5 160.828125 C 135.5 160.828125 137.21875 161.730469 138.207031 162.855469 C 139.191406 163.980469 143.976562 170.316406 144.765625 171.328125 C 145.554688 172.34375 148.792969 174.371094 149.464844 174.960938 C 150.144531 175.550781 151.492188 175.269531 152.480469 174.398438 C 153.464844 173.523438 155.152344 172.003906 155.039062 168.933594 C 155.039062 168.933594 156.421875 165.835938 156.363281 163.558594 C 156.363281 163.558594 160.699219 167.667969 163.066406 171.949219 C 165.429688 176.226562 167.402344 181.015625 169.484375 182.703125 C 169.484375 182.703125 164.53125 184.054688 160.417969 186.476562 C 156.308594 188.898438 150.675781 191.824219 149.550781 193.007812 C 148.425781 194.191406 143.636719 197.175781 144.089844 198.976562 C 144.539062 200.78125 150.902344 211.308594 151.632812 212.382812 C 152.363281 213.453125 155.574219 219.925781 157.433594 221.730469 C 159.289062 223.53125 161.65625 229.953125 162.332031 231.808594 C 162.332031 231.808594 160.082031 238.457031 158.5625 240.371094 C 157.039062 242.285156 153.546875 243.691406 153.492188 244.253906 C 153.433594 244.820312 153.378906 246.226562 154.953125 246.675781 C 156.53125 247.128906 163.289062 247.015625 164.695312 245.214844 C 166.101562 243.410156 170.722656 239.863281 172.242188 239.132812 C 173.761719 238.398438 173.816406 237.554688 173.589844 236.765625 C 173.367188 235.976562 171.5625 231.921875 169.875 230.515625 C 169.875 230.515625 167.058594 227.308594 165.089844 221.785156 C 163.117188 216.269531 162.214844 211.652344 161.597656 209.679688 C 160.976562 207.710938 158.613281 203.769531 158.390625 202.753906 C 158.390625 202.753906 162.5 202.132812 165.65625 202.300781 C 168.804688 202.472656 178.777344 200.160156 178.777344 200.160156 C 178.777344 200.160156 184.6875 208.214844 188.179688 211.480469 C 191.675781 214.75 194.941406 218.015625 195.726562 219.140625 C 196.515625 220.265625 197.078125 221.617188 202.371094 222.40625 C 202.371094 222.40625 212.507812 226.796875 214.984375 227.808594 C 217.464844 228.824219 227.035156 232.878906 230.640625 237.269531 C 230.640625 237.269531 232.207031 239.992188 233.636719 241.027344 C 235.074219 242.0625 236.507812 244.292969 236.902344 245.328125 C 237.300781 246.367188 237.460938 249.46875 238.894531 249.707031 C 240.328125 249.945312 241.601562 247.078125 241.445312 244.371094 C 241.285156 241.667969 238.179688 236.171875 237.941406 234.101562 C 237.699219 232.03125 237.503906 228.167969 236.1875 227.292969 C 234.875 226.414062 230.253906 228.644531 230.253906 228.644531 C 230.253906 228.644531 223.882812 225.296875 218.625 220.558594 C 218.625 220.558594 216.359375 217.652344 214.882812 216.855469 C 213.410156 216.058594 206.402344 213.988281 205.527344 213.113281 C 204.652344 212.238281 199.21875 204.382812 198.542969 201.792969 C 197.867188 199.199219 193.980469 195.710938 193.8125 194.359375 C 193.644531 193.007812 192.519531 186.644531 191.898438 184.394531 C 191.277344 182.140625 189.8125 179.324219 189.8125 179.324219 C 189.8125 179.324219 190.378906 179.042969 190.097656 178.703125 C 189.8125 178.363281 188.179688 177.914062 188.179688 176.734375 C 188.179688 175.550781 187.617188 171.160156 187.113281 169.972656 C 186.605469 168.792969 187.054688 168.679688 186.550781 167.269531 C 186.042969 165.863281 179.226562 147.167969 179.226562 147.167969 L 183.449219 148.070312 L 183.957031 146.324219 C 183.957031 146.324219 186.832031 145.988281 188.746094 145.308594 C 190.660156 144.632812 191.5625 143.675781 192.292969 144.691406 C 193.023438 145.703125 195.953125 149.703125 197.304688 150.660156 C 198.65625 151.617188 202.824219 157.980469 203.613281 160.792969 C 204.402344 163.609375 203.949219 166.3125 205.132812 167.214844 C 206.3125 168.117188 207.554688 169.242188 208.003906 169.75 C 208.457031 170.257812 208.964844 171.492188 209.523438 171.71875 C 210.089844 171.945312 210.425781 170.480469 210.425781 170.480469 C 210.425781 170.480469 211.550781 170.652344 212.003906 170.085938 C 212.003906 170.085938 213.242188 169.636719 213.128906 169.070312 C 213.128906 169.070312 214.085938 168.226562 213.523438 167.046875 C 213.523438 167.046875 212.507812 163.835938 212.226562 163.273438 C 211.945312 162.707031 210.992188 161.078125 209.128906 159.386719 C 209.128906 159.386719 206.652344 154.429688 204.003906 148.800781 C 201.355469 143.171875 197.300781 138.832031 196.121094 138.101562 C 194.941406 137.367188 185.082031 135.90625 185.082031 135.90625 C 185.082031 135.90625 184.914062 135.539062 184.6875 135.484375 C 184.460938 135.425781 175.3125 136.386719 174.578125 136.214844 C 173.847656 136.046875 170.128906 135.851562 169.792969 136.078125 C 169.453125 136.300781 167.734375 138.414062 167.296875 138.292969 C 166.859375 138.175781 165.148438 138.136719 164.589844 138.335938 C 164.03125 138.53125 162.003906 139.488281 162.003906 139.488281 C 162.003906 139.488281 160.25 138.652344 159.375 138.574219 L 158.617188 137.21875 C 158.617188 137.21875 158.65625 130.210938 158.140625 128.457031 C 157.621094 126.707031 154.515625 124.4375 149.457031 125.351562 C 144.402344 126.269531 141.890625 130.089844 142.132812 130.648438 C 142.382812 131.210938 143.023438 132.449219 143.023438 132.449219 Z M 143.023438 132.449219 " fill-opacity="1" fill-rule="nonzero"/><path fill="#ffffff" d="M 167.578125 201.292969 C 164.875 192.621094 160.765625 187.777344 160.765625 187.777344 C 166.28125 184.117188 174.84375 182.484375 174.84375 182.484375 C 174.84375 182.484375 169.550781 185.132812 167.691406 186.367188 L 169.433594 189.242188 L 165.097656 188.171875 C 165.101562 188.171875 166.226562 195.941406 167.578125 201.292969 Z M 167.578125 201.292969 " fill-opacity="1" fill-rule="nonzero"/><path fill="#ffffff" d="M 197.648438 202.609375 C 192.75 206.191406 187.230469 204.558594 187.230469 204.558594 L 189.597656 204.050781 C 185.316406 202.53125 183.742188 199.882812 183.742188 199.882812 C 183.742188 199.882812 188.414062 197.515625 190.386719 193.96875 C 192.355469 190.421875 190.5 183.214844 190.5 183.214844 C 190.5 183.214844 192.414062 196.222656 176.984375 198.589844 L 180.082031 199.378906 C 180.082031 199.378906 185.375 207.035156 187.625 208.785156 C 187.625 208.78125 194.609375 207.417969 197.648438 202.609375 Z M 197.648438 202.609375 " fill-opacity="1" fill-rule="nonzero"/><path fill="#ffffff" d="M 172.007812 237.890625 C 167.46875 240.039062 164.402344 243.78125 162.96875 244.699219 C 161.535156 245.613281 155.046875 245.695312 155.046875 245.695312 C 155.046875 245.695312 154.609375 244.382812 154.929688 244.140625 C 155.246094 243.902344 158.035156 242.550781 159.347656 241.472656 C 160.660156 240.398438 161.101562 235.101562 162.613281 234.703125 C 164.125 234.308594 166.832031 236.097656 168.347656 235.578125 C 169.863281 235.0625 170.21875 232.394531 170.21875 232.394531 C 170.21875 232.394531 173.441406 237.132812 172.007812 237.890625 Z M 172.007812 237.890625 " fill-opacity="1" fill-rule="nonzero"/><path fill="#ffffff" d="M 230.941406 229.765625 C 230.941406 229.765625 233.371094 231.15625 233.648438 233.269531 C 233.925781 235.378906 232.132812 237.167969 232.410156 237.6875 C 232.691406 238.207031 236.832031 242.863281 237.46875 244.339844 C 238.105469 245.8125 238.265625 248.441406 238.703125 248.558594 C 239.140625 248.675781 240.574219 246.367188 240.335938 244.65625 C 240.097656 242.945312 237.152344 235.820312 236.988281 234.34375 C 236.832031 232.871094 236.230469 229.050781 235.875 228.648438 C 235.519531 228.253906 232.574219 228.96875 230.941406 229.765625 Z M 230.941406 229.765625 " fill-opacity="1" fill-rule="nonzero"/><path fill="#ffffff" d="M 156.878906 190.648438 C 156.878906 190.648438 151.585938 192.957031 150.96875 193.632812 C 150.347656 194.3125 145.953125 197.351562 146.066406 198.367188 C 146.179688 199.378906 154.121094 213.402344 154.121094 213.402344 C 154.121094 213.402344 149.164062 200.503906 149.050781 199.4375 C 148.9375 198.367188 151.867188 195.550781 151.867188 195.550781 L 150.289062 195.496094 Z M 156.878906 190.648438 " fill-opacity="1" fill-rule="nonzero"/><path fill="#ffffff" d="M 189.652344 209.910156 C 189.652344 209.910156 196.296875 217.175781 197.253906 218.1875 C 198.210938 219.199219 200.070312 220.722656 202.714844 221.058594 C 205.363281 221.398438 222.816406 229.902344 222.816406 229.902344 C 222.816406 229.902344 206.148438 220.609375 204.292969 219.707031 C 202.433594 218.804688 199.335938 217.625 198.210938 215.878906 C 197.085938 214.132812 189.652344 209.910156 189.652344 209.910156 Z M 189.652344 209.910156 " fill-opacity="1" fill-rule="nonzero"/><path fill="#ffffff" d="M 175.667969 174.457031 C 174.871094 169.277344 172.164062 164.660156 172.164062 164.660156 C 173.039062 170.875 170.453125 182.023438 170.453125 182.023438 C 170.453125 182.023438 175.351562 179.351562 177.699219 179.035156 C 180.046875 178.714844 188.132812 178.996094 188.132812 178.996094 C 188.132812 178.996094 187.21875 178.359375 186.699219 177.644531 C 186.179688 176.925781 185.863281 170.4375 185.585938 170 C 185.304688 169.5625 185.46875 168.566406 185.347656 167.929688 C 185.226562 167.292969 177.660156 147.34375 177.660156 147.34375 C 177.660156 147.34375 179.492188 160.363281 179.574219 165.855469 L 177.503906 161.394531 C 177.5 161.394531 177.660156 170.394531 175.667969 174.457031 Z M 175.667969 174.457031 " fill-opacity="1" fill-rule="nonzero"/><path fill="#ffffff" d="M 182.757812 146.664062 C 185.1875 142.203125 185.066406 136.867188 185.066406 136.867188 C 180.726562 136.867188 175.109375 137.664062 175.109375 137.664062 C 175.109375 137.664062 171.449219 137.1875 170.609375 137.347656 C 169.777344 137.503906 168.9375 139.175781 168.421875 139.539062 C 167.902344 139.894531 166.070312 139.457031 165.273438 139.496094 C 164.476562 139.539062 162.804688 140.609375 162.804688 140.609375 C 162.804688 140.609375 164.71875 140.371094 165.550781 140.570312 C 166.386719 140.769531 168.578125 141.644531 169.296875 141.050781 C 170.011719 140.453125 170.886719 138.898438 171.761719 138.898438 C 172.636719 138.898438 174.070312 140.050781 174.507812 139.972656 C 174.945312 139.890625 179.085938 139.253906 182.355469 139.214844 L 182.074219 141.125 L 183.507812 140.089844 C 183.515625 140.09375 183.394531 144.792969 182.757812 146.664062 Z M 182.757812 146.664062 " fill-opacity="1" fill-rule="nonzero"/><path fill="#ffffff" d="M 155.386719 163.449219 C 155.386719 163.449219 149.925781 162.886719 147.84375 161.113281 C 147.84375 161.113281 148.941406 158.269531 149.925781 157.171875 C 149.925781 157.171875 149.617188 151.964844 149.925781 149.964844 C 149.925781 149.964844 150.515625 155.933594 151.304688 157.539062 L 149.757812 160.71875 C 149.757812 160.714844 152.402344 162.691406 155.386719 163.449219 Z M 155.386719 163.449219 " fill-opacity="1" fill-rule="nonzero"/></svg>